<?xml version="1.0"?><svg width="640" height="480" xmlns="http://www.w3.org/2000/svg">
 <g>
  <title>Layer 1</title>
  <path fill-rule="evenodd" fill="#7f0000" d="m237.393982,11l-209.393982,0c-9.94101,0 -18,8.05899 -18,18l0,418.787964c0,9.940063 8.05899,18 18,18l418.786987,0c9.94104,0 18,-8.059937 18,-18l0,-418.787964c0,-9.94101 -8.05896,-18 -18,-18l-209.393005,0z" clip-rule="evenodd"/>
  <switch>
   <g>
    <linearGradient y2="227.7358" y1="227.7358" x2="455.1484" x1="424.3672" id="XMLID_1_" gradientUnits="userSpaceOnUse">
     <stop stop-color="#E5E5E5" offset="0"/>
     <stop stop-color="#E2E2E2" offset="0.1696"/>
     <stop stop-color="#D8D8D8" offset="0.3059"/>
     <stop stop-color="#C7C7C7" offset="0.4306"/>
     <stop stop-color="#B0B0B0" offset="0.5484"/>
     <stop stop-color="#919191" offset="0.6614"/>
     <stop stop-color="#6B6B6B" offset="0.7707"/>
     <stop stop-color="#3E3E3E" offset="0.8772"/>
     <stop stop-color="#0C0C0C" offset="0.9788"/>
     <stop stop-color="#000000" offset="1"/>
    </linearGradient>
    <linearGradient y2="227.376" y1="227.376" x2="0.0713" x1="30.8516" id="XMLID_2_" gradientUnits="userSpaceOnUse">
     <stop stop-color="#E5E5E5" offset="0"/>
     <stop stop-color="#E2E2E2" offset="0.2675"/>
     <stop stop-color="#D8D8D8" offset="0.4824"/>
     <stop stop-color="#C7C7C7" offset="0.679"/>
     <stop stop-color="#B0B0B0" offset="0.8635"/>
     <stop stop-color="#999999" offset="1"/>
    </linearGradient>
    <linearGradient y2="0.0718" y1="30.8521" x2="227.7358" x1="227.7358" id="XMLID_3_" gradientUnits="userSpaceOnUse">
     <stop stop-color="#E5E5E5" offset="0"/>
     <stop stop-color="#E2E2E2" offset="0.2675"/>
     <stop stop-color="#D8D8D8" offset="0.4824"/>
     <stop stop-color="#C7C7C7" offset="0.679"/>
     <stop stop-color="#B0B0B0" offset="0.8635"/>
     <stop stop-color="#999999" offset="1"/>
    </linearGradient>
    <linearGradient y2="454.6797" y1="423.8994" x2="227.376" x1="227.376" id="XMLID_4_" gradientUnits="userSpaceOnUse">
     <stop stop-color="#E5E5E5" offset="0"/>
     <stop stop-color="#E2E2E2" offset="0.1696"/>
     <stop stop-color="#D8D8D8" offset="0.3059"/>
     <stop stop-color="#C7C7C7" offset="0.4306"/>
     <stop stop-color="#B0B0B0" offset="0.5484"/>
     <stop stop-color="#919191" offset="0.6614"/>
     <stop stop-color="#6B6B6B" offset="0.7707"/>
     <stop stop-color="#3E3E3E" offset="0.8772"/>
     <stop stop-color="#0C0C0C" offset="0.9788"/>
     <stop stop-color="#000000" offset="1"/>
    </linearGradient>
   </g>
  </switch>
  <g id="svg_1">
   <path fill-rule="evenodd" fill="#ffffff" d="m204.244019,229.423004l-25.02002,26.31601l35.927979,22.247986c0.288025,16.992004 0.324036,31.428009 0.252014,44.281006c-0.071991,12.743988 0.863007,25.09198 -0.791992,31.606995c-1.835999,6.371002 -6.227997,6.264008 -9.864014,6.335999c-3.778992,-0.071991 -9.68399,-1.942993 -11.880005,-6.588013c-2.230988,-4.823975 -1.079987,-12.204987 -1.259979,-21.743988c-0.253021,-9.610992 -0.253021,-21.274994 0,-35.424011c-11.376007,-5.724976 -21.024002,-10.800995 -29.089005,-15.659973c-8.171997,-4.896027 -15.046997,-8.496002 -19.222992,-13.175995c-4.141006,-4.824036 -5.580002,-10.080017 -5.580002,-14.939026c-0.108002,-4.860992 1.584,-8.567993 5.074997,-13.895996c3.528,-5.507996 8.891998,-11.125 15.660004,-18.216003c6.695999,-7.127991 17.531998,-19.079987 24.047989,-24.047989c6.300995,-5.003998 9.469025,-6.229004 13.932007,-6.048004c4.5,-0.035995 8.677002,3.167999 12.384979,6.300003c3.527039,3.095993 5.004028,6.084 8.855042,12.419998c3.779968,6.263992 8.279968,14.507996 13.644958,25.020004c10.404022,-1.008011 18.107025,-1.008011 23.795013,0c5.545013,0.935989 8.748016,2.735992 9.613007,5.832001c0.756012,3.096008 0.035004,10.007996 -5.075989,12.38501c-5.363007,2.22998 -19.90802,1.007996 -26.567993,1.042969c-6.695007,0.072021 -10.188019,0.324036 -13.393005,-1.042969c-3.311005,-1.621033 -3.85199,-4.213013 -6.335999,-8.064026c-2.626007,-3.85199 -5.615021,-8.785995 -9.106995,-14.941986z" clip-rule="evenodd"/>
   <path fill-rule="evenodd" fill="#ffffff" d="m230.309021,156.628006c12.001984,0 21.743958,9.740997 21.743958,21.743988c0,12.003006 -9.741974,21.744003 -21.743958,21.744003c-12.003021,0 -21.744019,-9.740997 -21.744019,-21.744003c-0.001007,-12.002991 9.740997,-21.743988 21.744019,-21.743988" clip-rule="evenodd"/>
   <path fill-rule="evenodd" fill="#ffffff" d="m124,282.666992c33.584,0 60.839996,27.257996 60.839996,60.839996c0,33.584015 -27.255997,60.84201 -60.839996,60.84201c-33.584,0 -60.839996,-27.257996 -60.839996,-60.84201c0,-33.582001 27.255997,-60.839996 60.839996,-60.839996zm0,11.77301c27.085999,0 49.067993,21.981995 49.067993,49.06601c0,27.085999 -21.981995,49.067993 -49.067993,49.067993c-27.085999,0 -49.067993,-21.981995 -49.067993,-49.067993c0,-27.083008 21.981995,-49.06601 49.067993,-49.06601z" clip-rule="evenodd"/>
   <path fill-rule="evenodd" fill="#ffffff" d="m283.156006,282.666992c33.583984,0 60.839996,27.257996 60.839996,60.839996c0,33.584015 -27.256012,60.84201 -60.839996,60.84201c-33.583984,0 -60.840027,-27.257996 -60.840027,-60.84201c0,-33.582001 27.256042,-60.839996 60.840027,-60.839996zm0,11.77301c27.085999,0 49.067993,21.981995 49.067993,49.06601c0,27.085999 -21.981995,49.067993 -49.067993,49.067993c-27.085999,0 -49.067993,-21.981995 -49.067993,-49.067993c0,-27.083008 21.981995,-49.06601 49.067993,-49.06601z" clip-rule="evenodd"/>
   <path fill-rule="evenodd" fill="#ffffff" d="m202.156006,225.175995l-25.056,26.315002l35.928986,22.285004c0.179993,16.954987 0.360016,31.428009 0.252014,44.243988c-0.108002,12.671997 0.937012,25.164001 -0.756012,31.643005c-1.837006,6.373016 -6.227997,6.265991 -9.863983,6.335999c-3.778992,-0.070007 -9.64801,-1.942993 -11.916016,-6.587982c-2.339996,-4.787018 -1.007996,-12.275024 -1.26001,-21.779022c-0.251984,-9.610992 -0.251984,-21.274994 0,-35.388977c-11.375977,-5.688019 -21.02298,-10.871002 -29.087982,-15.695007c-8.171997,-4.895996 -15.048996,-8.496002 -19.225006,-13.175995c-4.139999,-4.789001 -5.580002,-10.080017 -5.580002,-14.903992c-0.106995,-4.824036 1.584,-8.67601 5.076004,-13.932022c3.492004,-5.507996 9,-11.125 15.695999,-18.215988c6.695999,-7.164001 17.567001,-19.008011 24.013016,-24.012009c6.298981,-5.112 9.46698,-6.119995 13.932007,-6.084c4.5,-0.072006 8.675964,3.240005 12.383972,6.335999c3.528015,3.132004 5.004028,6.012009 8.856018,12.384003c3.778992,6.263992 8.242981,14.472 13.679993,25.054993c10.332001,-1.007996 18.071991,-1.007996 23.76001,0c5.542969,0.900009 8.747986,2.701004 9.610992,5.797012c0.828003,3.022995 0.071991,10.080002 -5.039001,12.419998c-5.365021,2.268005 -19.90799,0.935974 -26.568024,1.007996c-6.694977,0.035004 -10.151978,0.395996 -13.427979,-1.007996c-3.23999,-1.583984 -3.85199,-4.28302 -6.300995,-8.100006c-2.627014,-3.850998 -5.615997,-8.785004 -9.108002,-14.940002z" clip-rule="evenodd"/>
   <path fill-rule="evenodd" fill="#ffffff" d="m228.14801,152.307999c12.001984,0 21.743988,9.742004 21.743988,21.744003c0,12.001999 -9.742004,21.744003 -21.743988,21.744003c-12.002991,0 -21.744019,-9.742004 -21.744019,-21.744003c0,-12.001999 9.742004,-21.744003 21.744019,-21.744003" clip-rule="evenodd"/>
   <path fill-rule="evenodd" fill="#ffffff" d="m121.912003,278.455994c33.584,0 60.840012,27.256012 60.840012,60.839996c0,33.584015 -27.256012,60.839996 -60.840012,60.839996c-33.584,0 -60.840012,-27.255981 -60.840012,-60.839996c0,-33.583984 27.256012,-60.839996 60.840012,-60.839996zm0,11.735992c27.085999,0 49.067993,21.982025 49.067993,49.06601c0,27.085999 -21.981995,49.067993 -49.067993,49.067993c-27.086014,0 -49.068008,-21.981995 -49.068008,-49.067993c0,-27.083008 21.981995,-49.06601 49.068008,-49.06601z" clip-rule="evenodd"/>
   <path fill-rule="evenodd" fill="#ffffff" d="m281.031006,278.455994c33.583984,0 60.84198,27.256012 60.84198,60.839996c0,33.584015 -27.257996,60.839996 -60.84198,60.839996c-33.582001,0 -60.838989,-27.255981 -60.838989,-60.839996c0,-33.583984 27.256989,-60.839996 60.838989,-60.839996zm0,11.735992c27.085999,0 49.067993,21.982025 49.067993,49.06601c0,27.085999 -21.981995,49.067993 -49.067993,49.067993c-27.083984,0 -49.06601,-21.981995 -49.06601,-49.067993c0,-27.083008 21.982025,-49.06601 49.06601,-49.06601z" clip-rule="evenodd"/>
   <path fill-rule="evenodd" fill="#ffffff" d="m221.812988,120.596008c2.699005,-2.196014 8.963989,-8.712006 19.225006,-19.980011c10.222992,-11.339996 23.902008,-26.856003 41.615021,-47.231995c11.590973,18.215996 20.121979,31.355995 26.422974,39.995995c6.156006,8.532005 9.576019,12.276001 10.404022,11.232002c6.550995,-6.479996 12.060974,-11.987999 16.812988,-16.811996c4.679993,-4.824005 8.313995,-8.784004 11.195007,-12.024002c14.399994,20.015999 26.35199,36.503998 36.828003,50.436005c10.294983,13.824005 18.468994,24.299988 24.804993,32.003998l-39.205017,-36c-3.23999,9.216003 -8.530975,13.967987 -16.019989,14.399994c-7.704987,0.251999 -19.403992,-10.079987 -28.835999,-11.988007c-9.432007,-1.90799 -18.828003,3.960007 -27.21701,0.792007c-8.567993,-3.348007 -15.190979,-16.596001 -23.218994,-20.015999c-8.063995,-3.384003 -16.235992,-3.384003 -24.804993,0c-9.322998,5.040001 -18.647003,10.11599 -28.006012,15.192009z" clip-rule="evenodd"/>
   <path fill-rule="evenodd" fill="#ffffff" d="m219.399994,115.807999c2.699005,-2.267998 8.96402,-8.711998 19.225006,-20.015999c10.223022,-11.339996 23.902008,-26.855003 41.61499,-47.231998c11.59201,18.180004 20.123016,31.427998 26.424011,40.032001c6.156006,8.568001 9.575989,12.203995 10.403992,11.195999c6.553009,-6.480003 12.061005,-11.987999 16.813019,-16.812004c4.679993,-4.823997 8.313995,-8.82 11.194977,-11.987999c14.400024,20.015999 26.35202,36.503998 36.828003,50.436012c10.295013,13.82399 18.468994,24.299988 24.805023,32.003983l-39.205017,-36.035995c-3.23999,9.287994 -8.531006,13.968002 -16.019989,14.436005c-7.632996,0.287994 -19.369019,-10.152008 -28.800995,-12.024002c-9.46701,-1.908005 -18.828003,3.960007 -27.252014,0.792007c-8.496002,-3.384003 -15.156006,-16.52401 -23.18399,-19.980011c-8.100006,-3.383995 -16.199005,-3.383995 -24.840027,0c-9.322998,5.040001 -18.646973,10.116005 -28.006989,15.192001z" clip-rule="evenodd"/>
   <path fill-rule="evenodd" fill="#ffffff" d="m260.225006,87.800003l18.395996,-23.220001l32.039001,46.439995c-7.667999,-0.287994 -14.291016,-1.944 -20.015991,-4.823997c-5.832001,-2.987999 -9.289001,-9.755997 -14.400024,-12.816002c-5.182983,-3.059998 -10.332001,-4.967995 -16.018982,-5.579994z" clip-rule="evenodd"/>
   <path fill-rule="evenodd" fill="#ffffff" d="m321.063995,111.811996l23.221008,-24.839996l17.604004,24.839996c-5.473022,5.940002 -10.584015,8.964005 -16.02002,9.612015c-5.399994,0.503998 -11.880981,-4.824005 -15.983978,-6.40802c-4.213013,-1.691994 -7.022003,-2.627991 -8.821014,-3.203995z" clip-rule="evenodd"/>
  </g>
 </g>
</svg>